<?xml version="1.0" encoding="utf-8"?>
<!-- Generator: Adobe Illustrator 26.3.1, SVG Export Plug-In . SVG Version: 6.00 Build 0)  -->
<svg version="1.1" id="Calque_1" xmlns="http://www.w3.org/2000/svg" xmlns:xlink="http://www.w3.org/1999/xlink" x="0px" y="0px"
	 viewBox="0 0 66.6 78.8" style="enable-background:new 0 0 66.6 78.8;" xml:space="preserve">
<path d="M32.1,3.4v6.1h0c-0.5,0-0.9,0.4-0.9,0.9c0,0.2,0.1,0.3,0.1,0.5l-8.9,5.1c-0.2-0.2-0.4-0.3-0.7-0.3c-0.5,0-0.9,0.4-0.9,0.9
	c0,0.1,0,0.2,0,0.2l-9.3,5.4c-0.2-0.2-0.4-0.3-0.7-0.3c-0.5,0-0.9,0.4-0.9,0.9c0,0.4,0.3,0.8,0.7,0.9v7.5L3,31.8v12.1
	c0,7,13.1,11.7,13.1,11.7v-4.4l4.6,2.7c0,0.1-0.1,0.2-0.1,0.3c0,0.5,0.4,0.9,0.9,0.9c0.3,0,0.5-0.1,0.7-0.4l9.8,5.7v14.7
	c0,0,31.1-11.1,31.1-27.6v-8.8v-2.7V9.5L32.1,3.4z M28.8,16.8l-1.2,2.1c-0.1-0.1-0.3-0.1-0.5-0.1c-0.4,0-0.7,0.2-0.8,0.5l-3.6-2.1
	c0-0.1,0.1-0.2,0.1-0.3H28.8z M21.8,53.3v-5.2h3.5l1.4,2.4c-0.3,0.2-0.4,0.4-0.4,0.8c0,0.1,0,0.2,0.1,0.3l-3.8,2.2
	C22.3,53.5,22.1,53.3,21.8,53.3z M21.8,17.7c0.3,0,0.6-0.2,0.8-0.4l3.7,2.1c0,0.1,0,0.1,0,0.2c0,0.3,0.2,0.6,0.5,0.8l-1.4,2.4h-3.5
	L21.8,17.7C21.8,17.7,21.8,17.7,21.8,17.7z M25.4,47.9l-3.2-5.5c0.1,0,0.1-0.1,0.1-0.2l9.1,5.2c-0.1,0.1-0.2,0.3-0.2,0.5H25.4z
	 M16.1,38.6L16.1,38.6L16.1,38.6L16.1,38.6z M16.1,38.4v-2.8h1.8l-1.7,2.9L16.1,38.4z M31.6,23.6c0.1,0.1,0.3,0.2,0.5,0.2h0v10.7
	v0.1h0c-0.2,0-0.4,0.1-0.6,0.2l-9-5.2c0.1-0.1,0.1-0.2,0.1-0.4c0-0.1,0-0.3-0.1-0.4L31.6,23.6z M21.8,30.1c0.3,0,0.5-0.2,0.6-0.4
	l9,5.2c-0.1,0.1-0.2,0.3-0.2,0.5h-9.4V30.1z M31.2,35.6c0,0.2,0.1,0.3,0.2,0.5l-9,5.2c-0.1-0.2-0.3-0.4-0.6-0.4v-5.2H31.2z
	 M21.6,40.7C21.6,40.7,21.6,40.7,21.6,40.7c-0.1,0-0.2,0-0.3,0.1l-3-5.3h3.3V40.7z M22.5,41.4l9.1-5.2c0.2,0.1,0.4,0.2,0.6,0.2h0
	v2.4v8.3h0c-0.2,0-0.4,0.1-0.6,0.2L22.4,42c0-0.1,0.1-0.2,0.1-0.4C22.5,41.6,22.5,41.5,22.5,41.4z M31.4,23.5l-9,5.2
	c-0.1-0.1-0.1-0.1-0.2-0.2l3.1-5.4h5.9C31.3,23.2,31.3,23.3,31.4,23.5z M21.6,30.1v5.3h-3.3l3.1-5.3C21.4,30.1,21.5,30.1,21.6,30.1z
	 M18.1,35.7l3,5.3C21,41,20.9,41,20.9,41.1l-4.5-2.6L18.1,35.7z M31.2,22.8h-5.7l1.4-2.4c0.1,0,0.2,0.1,0.3,0.1
	c0.2,0,0.5-0.1,0.6-0.3l3.6,2.1C31.3,22.5,31.2,22.6,31.2,22.8C31.2,22.8,31.2,22.8,31.2,22.8z M25.1,23l-3.1,5.3
	c-0.1,0-0.2-0.1-0.3-0.1V23H25.1z M21.2,29.9l-3.1,5.3l-1.7-2.9l4.6-2.6C21,29.8,21.1,29.9,21.2,29.9z M17.9,35.4h-1.8v-2.8l0.1-0.1
	L17.9,35.4z M16.1,32.3L16.1,32.3L16.1,32.3L16.1,32.3z M16.1,44.8L16.1,44.8L16.1,44.8L16.1,44.8z M16.1,44.4v-5.3l0.2-0.3l4.5,2.6
	c-0.1,0.1-0.1,0.2-0.1,0.4c0,0.2,0.1,0.3,0.1,0.4l-4.5,2.6L16.1,44.4z M22,42.5l3.1,5.4h-3.3v-5.3C21.9,42.5,22,42.5,22,42.5z
	 M27.1,50.3c-0.1,0-0.2,0-0.3,0.1l-1.3-2.3h5.7c0,0.2,0.1,0.3,0.2,0.5l-3.6,2.1C27.6,50.4,27.4,50.3,27.1,50.3z M32.1,11.4
	L32.1,11.4l0,5.1h-3L32.1,11.4C32.1,11.4,32.1,11.4,32.1,11.4z M32.1,16.8v5.1h0c-0.3,0-0.5,0.1-0.7,0.3l-3.6-2.1
	C28,20,28,19.8,28,19.6c0-0.3-0.1-0.5-0.3-0.7l1.3-2.2H32.1z M21.6,17.6v5.2h-3.3l3.1-5.3C21.4,17.6,21.5,17.6,21.6,17.6z M21.6,23
	v5.3c-0.3,0-0.5,0.2-0.6,0.4L16.4,26l1.7-3H21.6z M16.2,25.9l-4.4-2.6c0-0.1,0.1-0.2,0.1-0.3c0,0,0,0,0,0h6L16.2,25.9z M11.7,23.5
	l4.4,2.6L14.5,29l-3-5.2C11.6,23.7,11.6,23.6,11.7,23.5z M16.3,26.2l4.5,2.6c-0.1,0.1-0.1,0.2-0.1,0.4c0,0.1,0,0.3,0.1,0.4l-4.5,2.6
	l-0.2-0.3v-0.7l-0.4,0l-1.1-2L16.3,26.2z M15.5,31.2l-2.1,0.1l1.1-1.9L15.5,31.2z M16.1,45.1l0.1-0.1l1.7,2.9h-1.8V45.1z M16.4,44.9
	l4.5-2.6c0.2,0.2,0.4,0.3,0.7,0.3c0,0,0,0,0,0v5.3h-3.5L16.4,44.9z M21.6,48.1v5.1c0,0,0,0,0,0c-0.1,0-0.2,0-0.3,0.1l-3-5.2H21.6z
	 M22.5,53.9l3.9-2.2c0.2,0.3,0.4,0.5,0.8,0.5c0.2,0,0.3,0,0.4-0.1l1.2,2.1h-6.2C22.5,54.1,22.5,54,22.5,53.9z M27.7,51.9
	c0.2-0.2,0.3-0.4,0.3-0.7c0-0.2-0.1-0.3-0.1-0.5l3.6-2.1c0.2,0.1,0.4,0.2,0.6,0.2h0v5.2H29L27.7,51.9z M32.1,54.3v5.2l-3-5.2H32.1z
	 M31.4,11.1c0.1,0.1,0.3,0.2,0.4,0.2l-3,5.2h-6.2c0-0.1-0.1-0.2-0.1-0.3L31.4,11.1z M21,17.2c0,0.1,0.1,0.2,0.2,0.2L18,22.8h-6.2
	c0-0.1-0.1-0.2-0.1-0.3L21,17.2z M10.9,23.9c0.1,0,0.2,0,0.3-0.1l3.1,5.3l-1.2,2.1l-2.2,0.1V23.9z M16.1,50.9v-2.8H18l3.1,5.3
	c-0.1,0.1-0.2,0.1-0.2,0.2L16.1,50.9z M22.4,54.6c0-0.1,0-0.1,0.1-0.2h6.4l3.2,5.6v0.2L22.4,54.6z"/>
</svg>
